<svg width="907" height="209" viewBox="0 0 907 209" fill="none" xmlns="http://www.w3.org/2000/svg" xmlns:xlink="http://www.w3.org/1999/xlink">
<path d="M166.735 44.6371H71.7346L3.73462 147.637L140.235 206.137L902.735 176.137L867.235 74.1371L514.735 57.6371L496.235 2.63708L166.735 27.1371V44.6371Z" fill="#105D8D"/>
<path d="M166.735 44.6371H71.7346L3.73462 147.637L140.235 206.137L902.735 176.137L867.235 74.1371L514.735 57.6371L496.235 2.63708L166.735 27.1371V44.6371Z"/>
<path d="M166.735 44.6371H71.7346L3.73462 147.637L140.235 206.137L902.735 176.137L867.235 74.1371L514.735 57.6371L496.235 2.63708L166.735 27.1371V44.6371Z" stroke="#5F10C0" stroke-width="5"/>
<path d="M176.235 32.4063V46.2525L505.235 56.6371L491.463 11.6371L176.235 32.4063Z" fill="#CCB51D" stroke="#060003" stroke-width="2"/>
<path d="M773.235 135.637L778.235 172.368L888.735 167.637L874.963 122.637L773.235 135.637Z" fill="#CCB51D" stroke="#060003" stroke-width="2"/>
</svg>
