<svg width="908" height="209" viewBox="0 0 908 209" fill="none" xmlns="http://www.w3.org/2000/svg" xmlns:xlink="http://www.w3.org/1999/xlink">
<path d="M166.918 44.6368H71.8125L3.73682 147.637L140.389 206.137L903.737 176.137L868.197 74.1368L515.305 57.6368L496.785 2.63684L166.918 27.1368V44.6368Z" fill="#105D8D"/>
<path d="M166.918 44.6368H71.8125L3.73682 147.637L140.389 206.137L903.737 176.137L868.197 74.1368L515.305 57.6368L496.785 2.63684L166.918 27.1368V44.6368Z"/>
<path d="M166.918 44.6368H71.8125L3.73682 147.637L140.389 206.137L903.737 176.137L868.197 74.1368L515.305 57.6368L496.785 2.63684L166.918 27.1368V44.6368Z" stroke="#5F10C0" stroke-width="5"/>
<path d="M176.429 32.4061V46.2522L505.795 56.6368L492.007 11.6368L176.429 32.4061Z" fill="#CCB51D" stroke="#060003" stroke-width="2"/>
<path d="M774.093 135.637L779.098 172.368L889.721 167.637L875.934 122.637L774.093 135.637Z" fill="#CCB51D" stroke="#060003" stroke-width="2"/>
</svg>
